<?xml version="1.0" standalone="no"?>
<!DOCTYPE svg PUBLIC "-//W3C//DTD SVG 20010904//EN"
 "http://www.w3.org/TR/2001/REC-SVG-20010904/DTD/svg10.dtd">
<svg version="1.0" xmlns="http://www.w3.org/2000/svg"
 width="32.000000pt" height="32.000000pt" viewBox="0 0 32.000000 32.000000"
 preserveAspectRatio="xMidYMid meet">

<g transform="translate(0.000000,32.000000) scale(0.100000,-0.100000)"
fill="#000000" stroke="none">
<path d="M282 224 c-1 -61 -6 -95 -15 -102 -7 -6 -65 -13 -128 -15 l-114 -3
116 -2 c149 -3 151 -1 146 124 l-3 89 -2 -91z"/>
<path d="M60 200 l0 -60 85 0 85 0 0 60 0 60 -85 0 -85 0 0 -60z m85 10 c-17
-7 -15 -9 13 -9 43 -1 45 -31 2 -31 -16 0 -30 5 -30 10 0 6 -7 10 -15 10 -8 0
-15 7 -15 15 0 10 10 15 33 14 27 0 29 -2 12 -9z"/>
<path d="M312 84 c-3 -67 -17 -73 -172 -77 l-135 -3 136 -2 c131 -2 136 -1
158 22 17 18 21 33 18 62 l-4 39 -1 -41z"/>
<path d="M173 53 c15 -2 39 -2 55 0 15 2 2 4 -28 4 -30 0 -43 -2 -27 -4z"/>
</g>
</svg>
